#!OML:ASF H:\Pregnant\Project 1\Capture day 1\Session 1\femalepreg.ASF
:FULLY-SPECIFIED
:DEGREES
1408
root 8.63779 16.3943 22.0643 319.686 -71.8138 -296.73
lowerback -4.60532 -7.71896 13.7648
upperback -2.60053 -10.8107 2.92508
thorax -2.13719 -5.6254 -4.55192
lowerneck -28.6979 10.3301 9.57417
upperneck 17.5669 14.1055 -14.5417
head 12.3492 5.10092 -4.2901
rclavicle 1.03368e-014 -6.04305e-014
rhumerus -18.2788 -25.3562 -33.8846
rradius 35.6218
rwrist 11.2974
rhand -8.25465 -7.13466
rfingers 7.12502
rthumb 17.6638 -36.3523
lclavicle 1.03368e-014 -6.04305e-014
lhumerus -60.7606 -66.1583 134.106
lradius 37.4098
lwrist 30.4893
lhand -13.0896 4.00247
lfingers 7.12502
lthumb 13.0068 33.577
rfemur -35.9621 5.08601 7.75158
rtibia 30.0443
rfoot -12.93 -11.5877
rtoes 18.2154
lfemur -165.438 -46.5016 -21.1916
ltibia 155.424
lfoot 19.4579 46.3129
ltoes -31.0486
1409
root 8.63245 16.393 22.0625 319.739 -71.9697 -296.881
lowerback -4.57299 -7.69904 13.7124
upperback -2.59655 -10.778 2.91
thorax -2.13798 -5.60865 -4.53813
lowerneck -28.722 10.2944 9.51653
upperneck 17.7096 14.0727 -14.4488
head 12.39 5.08845 -4.25482
rclavicle 1.15295e-013 -1.27222e-014
rhumerus -18.5091 -25.686 -33.5805
rradius 35.3902
rwrist 11.3904
rhand -8.25149 -7.15087
rfingers 7.12502
rthumb 17.6668 -36.3683
lclavicle 1.15295e-013 -1.27222e-014
lhumerus -60.894 -66.1649 134.238
lradius 37.3563
lwrist 30.4665
lhand -13.0237 3.98714
lfingers 7.12502
lthumb 13.0704 33.5576
rfemur -35.8106 5.45256 7.87219
rtibia 29.931
rfoot -12.8222 -11.912
rtoes 18.3263
lfemur -165.634 -46.5215 -20.7039
ltibia 155.553
lfoot 18.8474 46.526
ltoes -30.3223
1410
root 8.62584 16.3913 22.0591 319.756 -72.1535 -297
lowerback -4.54327 -7.67309 13.6619
upperback -2.58439 -10.7385 2.88396
thorax -2.12996 -5.58785 -4.5382
lowerneck -28.7559 10.2651 9.47897
upperneck 17.8568 14.0407 -14.3562
head 12.4362 5.07715 -4.2226
rclavicle 5.1684e-014 -1.59028e-014
rhumerus -18.7382 -26.0511 -33.2716
rradius 35.1338
rwrist 11.4961
rhand -8.23918 -7.18822
rfingers 7.12502
rthumb 17.6787 -36.4045
lclavicle 5.1684e-014 -1.59028e-014
lhumerus -61.0196 -66.1518 134.321
lradius 37.3232
lwrist 30.4406
lhand -12.935 3.95871
lfingers 7.12502
lthumb 13.1559 33.5237
rfemur -35.6526 5.85624 8.01386
rtibia 29.8073
rfoot -12.7055 -12.2491
rtoes 18.4253
lfemur -165.805 -46.5636 -20.2534
ltibia 155.685
lfoot 18.3312 46.7058
ltoes -29.8707
1411
root 8.61853 16.3891 22.055 319.75 -72.3462 -297.086
lowerback -4.52751 -7.64445 13.6051
upperback -2.57045 -10.6978 2.85123
thorax -2.11219 -5.56585 -4.54433
lowerneck -28.7926 10.2401 9.45272
upperneck 17.9992 14.0084 -14.2609
head 12.4816 5.06712 -4.19098
rclavicle -1.19271e-014 2.22639e-014
rhumerus -18.9589 -26.436 -32.9527
rradius 34.8613
rwrist 11.6043
rhand -8.21797 -7.26529
rfingers 7.12502
rthumb 17.6991 -36.4798
lclavicle -1.19271e-014 2.22639e-014
lhumerus -61.1179 -66.1177 134.352
lradius 37.3041
lwrist 30.4116
lhand -12.8315 3.91642
lfingers 7.12502
lthumb 13.2556 33.4749
rfemur -35.5042 6.28624 8.15201
rtibia 29.6817
rfoot -12.5905 -12.5985
rtoes 18.5328
lfemur -165.97 -46.6493 -19.8382
ltibia 155.801
lfoot 17.9496 46.8733
ltoes -29.7181
1412
root 8.61087 16.3865 22.0508 319.731 -72.5351 -297.144
lowerback -4.53309 -7.61137 13.5478
upperback -2.55546 -10.6549 2.80838
thorax -2.08295 -5.54223 -4.56413
lowerneck -28.8185 10.2182 9.44337
upperneck 18.1236 13.9722 -14.169
head 12.5192 5.05751 -4.16399
rclavicle -1.145e-013 -9.54166e-015
rhumerus -19.1834 -26.8429 -32.6136
rradius 34.5891
rwrist 11.7052
rhand -8.16626 -7.39434
rfingers 7.12502
rthumb 17.7489 -36.6043
lclavicle -1.145e-013 -9.54166e-015
lhumerus -61.21 -66.0839 134.363
lradius 37.2994
lwrist 30.3984
lhand -12.7132 3.8621
lfingers 7.12502
lthumb 13.3696 33.4131
rfemur -35.3735 6.71879 8.27694
rtibia 29.5608
rfoot -12.4805 -12.9452
rtoes 18.628
lfemur -166.143 -46.7894 -19.4541
ltibia 155.885
lfoot 17.7962 47.0309
ltoes -29.9359
1413
root 8.60327 16.384 22.0471 319.704 -72.7137 -297.179
lowerback -4.55428 -7.57762 13.4916
upperback -2.5448 -10.6132 2.75309
thorax -2.05257 -5.51963 -4.59903
lowerneck -28.8376 10.1973 9.44099
upperneck 18.2378 13.9301 -14.0646
head 12.55 5.04841 -4.13441
rclavicle 3.81667e-014 -1.27222e-014
rhumerus -19.4178 -27.2671 -32.257
rradius 34.3211
rwrist 11.7806
rhand -8.10466 -7.53356
rfingers 7.12502
rthumb 17.8081 -36.7382
lclavicle 3.81667e-014 -1.27222e-014
lhumerus -61.3078 -66.0469 134.367
lradius 37.3043
lwrist 30.3958
lhand -12.5878 3.80067
lfingers 7.12502
lthumb 13.4905 33.3437
rfemur -35.2638 7.1256 8.3878
rtibia 29.4506
rfoot -12.3808 -13.262
rtoes 18.7089
lfemur -166.311 -46.952 -19.0827
ltibia 155.957
lfoot 17.5318 47.2259
ltoes -30.1066
1414
root 8.5964 16.3816 22.0449 319.719 -72.8663 -297.231
lowerback -4.59748 -7.54762 13.4491
upperback -2.54589 -10.5796 2.68679
thorax -2.02865 -5.50237 -4.65377
lowerneck -28.8517 10.1757 9.43715
upperneck 18.343 13.8832 -13.9487
head 12.5745 5.03935 -4.10105
rclavicle 3.81667e-014 -1.59028e-015
rhumerus -19.6624 -27.6994 -31.8804
rradius 34.0641
rwrist 11.8183
rhand -8.02941 -7.68096
rfingers 7.12502
rthumb 17.8805 -36.879
lclavicle 3.81667e-014 -1.59028e-015
lhumerus -61.4053 -66.0074 134.371
lradius 37.3087
lwrist 30.4096
lhand -12.4638 3.75949
lfingers 7.12502
lthumb 13.61 33.2946
rfemur -35.1849 7.46142 8.48184
rtibia 29.3545
rfoot -12.299 -13.5184
rtoes 18.8083
lfemur -166.515 -47.1523 -18.699
ltibia 156.001
lfoot 17.2968 47.4455
ltoes -30.256
1415
root 8.58998 16.3793 22.0436 319.752 -73.0043 -297.285
lowerback -4.65107 -7.51678 13.4141
upperback -2.55588 -10.546 2.61466
thorax -2.01096 -5.4862 -4.71879
lowerneck -28.865 10.1496 9.41846
upperneck 18.4422 13.8312 -13.8192
head 12.5933 5.02906 -4.06105
rclavicle -1.7175e-013 8.11041e-014
rhumerus -19.9196 -28.1367 -31.4729
rradius 33.8184
rwrist 11.8128
rhand -7.95561 -7.8207
rfingers 7.12502
rthumb 17.9515 -37.0122
lclavicle -1.7175e-013 8.11041e-014
lhumerus -61.5167 -65.9739 134.403
lradius 37.312
lwrist 30.4393
lhand -12.3419 3.74555
lfingers 7.12502
lthumb 13.7275 33.2727
rfemur -35.1296 7.70525 8.5803
rtibia 29.2739
rfoot -12.2322 -13.6823
rtoes 18.8958
lfemur -166.737 -47.3691 -18.3074
ltibia 156.031
lfoot 17.0428 47.6782
ltoes -30.3444
1416
root 8.58409 16.3769 22.0429 319.814 -73.1313 -297.351
lowerback -4.71058 -7.48861 13.3918
upperback -2.57914 -10.5163 2.53508
thorax -2.00864 -5.47384 -4.79713
lowerneck -28.8875 10.1242 9.37656
upperneck 18.5645 13.7797 -13.644
head 12.6164 5.0224 -3.99964
rclavicle 2.06736e-014 -4.29375e-014
rhumerus -20.1823 -28.5507 -31.0487
rradius 33.5782
rwrist 11.7601
rhand -7.89092 -7.97349
rfingers 7.12502
rthumb 18.0138 -37.1593
lclavicle 2.06736e-014 -4.29375e-014
lhumerus -61.6639 -65.9409 134.479
lradius 37.3091
lwrist 30.4923
lhand -12.2423 3.77429
lfingers 7.12502
lthumb 13.8235 33.295
rfemur -35.0994 7.85921 8.68784
rtibia 29.2087
rfoot -12.1831 -13.7558
rtoes 18.9707
lfemur -166.997 -47.6007 -17.896
ltibia 156.048
lfoot 16.8403 47.9112
ltoes -30.4323
1417
root 8.5787 16.3744 22.0427 319.915 -73.2522 -297.439
lowerback -4.78252 -7.45929 13.3886
upperback -2.60785 -10.4874 2.44636
thorax -2.01063 -5.46291 -4.89575
lowerneck -28.909 10.0991 9.3409
upperneck 18.6829 13.7219 -13.4575
head 12.6364 5.01542 -3.93606
rclavicle -1.19271e-014 -3.18055e-014
rhumerus -20.4531 -28.9646 -30.6128
rradius 33.3434
rwrist 11.6877
rhand -7.85187 -8.13128
rfingers 7.12502
rthumb 18.0514 -37.3136
lclavicle -1.19271e-014 -3.18055e-014
lhumerus -61.8628 -65.9342 134.607
lradius 37.3011
lwrist 30.5696
lhand -12.1139 3.78572
lfingers 7.12502
lthumb 13.9473 33.2979
rfemur -35.0935 7.91404 8.81593
rtibia 29.1561
rfoot -12.1488 -13.7292
rtoes 19.0405
lfemur -167.307 -47.8441 -17.4573
ltibia 156.054
lfoot 16.6759 48.1502
ltoes -30.5246
1418
root 8.5734 16.3716 22.042 320.021 -73.3816 -297.527
lowerback -4.8605 -7.4261 13.3703
upperback -2.63046 -10.4545 2.37006
thorax -1.99666 -5.44841 -4.97588
lowerneck -28.9372 10.0703 9.29506
upperneck 18.7841 13.6612 -13.2759
head 12.6505 5.00601 -3.87296
rclavicle 3.26007e-014 3.18055e-015
rhumerus -20.7048 -29.3681 -30.1541
rradius 33.1129
rwrist 11.6044
rhand -7.85996 -8.30073
rfingers 7.12502
rthumb 18.0436 -37.4838
lclavicle 3.26007e-014 3.18055e-015
lhumerus -62.0909 -65.9687 134.795
lradius 37.2919
lwrist 30.6858
lhand -11.9726 3.77819
lfingers 7.12502
lthumb 14.0835 33.281
rfemur -35.1003 7.89678 8.97433
rtibia 29.1124
rfoot -12.1231 -13.6154
rtoes 19.0911
lfemur -167.641 -48.0794 -17.0028
ltibia 156.067
lfoot 16.4804 48.3849
ltoes -30.6186
1419
root 8.56822 16.3685 22.0408 320.127 -73.5203 -297.61
lowerback -4.93797 -7.39527 13.322
upperback -2.64806 -10.424 2.31799
thorax -1.96773 -5.43319 -5.01644
lowerneck -28.9689 10.0437 9.23893
upperneck 18.8595 13.608 -13.1101
head 12.6572 4.99758 -3.81214
rclavicle -4.05521e-014 -4.77083e-014
rhumerus -20.9131 -29.7421 -29.6823
rradius 32.8932
rwrist 11.5196
rhand -7.90799 -8.50249
rfingers 7.12502
rthumb 17.9974 -37.6898
lclavicle -4.05521e-014 -4.77083e-014
lhumerus -62.312 -66.0295 135.022
lradius 37.2738
lwrist 30.8242
lhand -11.8325 3.75268
lfingers 7.12502
lthumb 14.2184 33.246
rfemur -35.117 7.82127 9.15907
rtibia 29.0756
rfoot -12.1067 -13.4275
rtoes 19.1245
lfemur -167.99 -48.3078 -16.5386
ltibia 156.088
lfoot 16.2085 48.6212
ltoes -30.7147
1420
root 8.5632 16.3652 22.0392 320.233 -73.6674 -297.691
lowerback -5.0128 -7.36829 13.2483
upperback -2.659 -10.3976 2.2886
thorax -1.92483 -5.41816 -5.02101
lowerneck -28.9882 10.0212 9.17969
upperneck 18.8968 13.5623 -12.9612
head 12.6493 4.99169 -3.7553
rclavicle 2.14687e-014 -2.8625e-014
rhumerus -21.0785 -30.0996 -29.2027
rradius 32.6917
rwrist 11.4446
rhand -7.9733 -8.7068
rfingers 7.12502
rthumb 17.9345 -37.8999
lclavicle 2.14687e-014 -2.8625e-014
lhumerus -62.5274 -66.1163 135.28
lradius 37.2505
lwrist 30.9805
lhand -11.6947 3.71512
lfingers 7.12502
lthumb 14.3512 33.1991
rfemur -35.139 7.70805 9.36362
rtibia 29.0422
rfoot -12.0979 -13.1876
rtoes 19.1516
lfemur -168.349 -48.5327 -16.0692
ltibia 156.114
lfoot 15.8439 48.8584
ltoes -30.8278
1421
root 8.55856 16.3615 22.0376 320.355 -73.8168 -297.784
lowerback -5.08335 -7.34622 13.1668
upperback -2.66784 -10.3768 2.26645
thorax -1.88029 -5.40542 -5.01343
lowerneck -28.9969 10.0074 9.14521
upperneck 18.9078 13.5223 -12.8351
head 12.6341 4.98846 -3.70974
rclavicle 1.66979e-014 -2.54444e-014
rhumerus -21.2299 -30.4365 -28.7262
rradius 32.5212
rwrist 11.3851
rhand -8.07136 -8.88867
rfingers 7.12502
rthumb 17.8402 -38.0904
lclavicle 1.66979e-014 -2.54444e-014
lhumerus -62.7806 -66.2253 135.575
lradius 37.236
lwrist 31.1467
lhand -11.5871 3.68161
lfingers 7.12502
lthumb 14.4549 33.1582
rfemur -35.1689 7.56491 9.58129
rtibia 29.0128
rfoot -12.0903 -12.9174
rtoes 19.1548
lfemur -168.75 -48.7784 -15.592
ltibia 156.125
lfoot 15.606 49.1052
ltoes -31.1707
1422
root 8.55424 16.3575 22.0356 320.476 -73.9712 -297.879
lowerback -5.14208 -7.3287 13.0881
upperback -2.67553 -10.3601 2.23695
thorax -1.84387 -5.3952 -5.01281
lowerneck -29.0007 10.0054 9.14753
upperneck 18.9147 13.4882 -12.7263
head 12.6218 4.98877 -3.67539
rclavicle 7.15625e-014 -4.29375e-014
rhumerus -21.3867 -30.7698 -28.2655
rradius 32.3812
rwrist 11.3616
rhand -8.18159 -9.03672
rfingers 7.12502
rthumb 17.7341 -38.248
lclavicle 7.15625e-014 -4.29375e-014
lhumerus -63.0944 -66.3452 135.905
lradius 37.23
lwrist 31.3222
lhand -11.488 3.68033
lfingers 7.12502
lthumb 14.5503 33.15
rfemur -35.2006 7.41928 9.80641
rtibia 28.9903
rfoot -12.09 -12.6363
rtoes 19.1901
lfemur -169.151 -49.0208 -15.1139
ltibia 156.143
lfoot 15.2562 49.36
ltoes -31.46
